<svg width="50" height="50" viewBox="0 0 50 50" fill="none" xmlns="http://www.w3.org/2000/svg">
<rect width="50" height="50" rx="25" fill="#D9D9D9"/>
<path d="M35.0996 28.389L30.038 26.1207C29.8087 26.0225 29.5585 25.983 29.31 26.0058C29.0615 26.0286 28.8227 26.1131 28.6151 26.2515C28.5941 26.265 28.574 26.2801 28.5551 26.2965L25.9097 28.5465C25.8822 28.5615 25.8517 28.5699 25.8204 28.571C25.7892 28.5721 25.7581 28.5659 25.7297 28.553C24.0292 27.7322 22.2678 25.9814 21.4438 24.3046C21.4301 24.2766 21.4229 24.2458 21.4229 24.2146C21.4229 24.1834 21.4301 24.1526 21.4438 24.1246L23.7014 21.4459C23.7176 21.4261 23.7326 21.4054 23.7464 21.3838C23.8829 21.1754 23.9653 20.9363 23.9863 20.688C24.0072 20.4398 23.966 20.1903 23.8664 19.9619L21.6142 14.9089C21.4863 14.6106 21.2651 14.3619 20.9838 14.2C20.7025 14.0381 20.3763 13.9718 20.0541 14.011C18.6539 14.1951 17.3687 14.8827 16.4386 15.9453C15.5085 17.008 14.9971 18.3729 15 19.7851C15 28.1747 21.8252 35 30.2148 35C31.627 35.0027 32.9918 34.4912 34.0544 33.5611C35.117 32.6311 35.8046 31.346 35.9889 29.9459C36.0281 29.6252 35.9627 29.3005 35.8025 29.02C35.6422 28.7395 35.3957 28.5182 35.0996 28.389ZM30.2148 33.7142C22.5346 33.7142 16.2858 27.4654 16.2858 19.7851C16.2822 18.6857 16.679 17.6226 17.4021 16.7945C18.1251 15.9663 19.125 15.4297 20.2148 15.285H20.2395C20.2827 15.2858 20.3246 15.2996 20.3598 15.3247C20.3949 15.3497 20.4217 15.3848 20.4366 15.4253L22.6974 20.473C22.7103 20.5011 22.717 20.5316 22.717 20.5625C22.717 20.5934 22.7103 20.6239 22.6974 20.652L20.4356 23.3371C20.4188 23.3563 20.4034 23.3767 20.3895 23.3981C20.2479 23.6142 20.1646 23.8632 20.1475 24.1209C20.1304 24.3786 20.1802 24.6364 20.292 24.8693C21.2424 26.815 23.2031 28.7608 25.1704 29.7112C25.4046 29.8224 25.6636 29.8709 25.9222 29.8522C26.1808 29.8334 26.4301 29.7479 26.6458 29.6041C26.6661 29.5901 26.6865 29.5751 26.7058 29.5591L29.3501 27.309C29.3763 27.295 29.4051 27.2867 29.4347 27.2849C29.4643 27.283 29.4939 27.2876 29.5216 27.2983L34.5842 29.5666C34.6256 29.5842 34.6604 29.6144 34.6836 29.6528C34.7069 29.6913 34.7175 29.7361 34.7139 29.7809C34.5699 30.8712 34.0338 31.8718 33.2058 32.5957C32.3779 33.3196 31.3146 33.7172 30.2148 33.7142Z" fill="black"/>
</svg>
