<svg width="518" height="457" viewBox="0 0 518 457" fill="none" xmlns="http://www.w3.org/2000/svg">
<path d="M283.964 407.984C307.117 400.04 329.251 389.162 349.559 375.357C373.36 359.187 395.904 337.339 401.334 309.038C406.735 280.985 394.344 251.03 403.075 223.764C409.608 203.338 426.831 188.371 443.973 175.408C465.522 159.13 488.979 143.323 496.626 115.429C500.359 101.823 497.812 86.8394 488.242 76.478C469.452 56.1984 439.199 65.9384 416.101 77.7617C405.305 83.2571 394.722 89.0791 384.26 95.1664C350.753 114.794 310.385 118.889 273.447 106.778C248.503 102.339 222.876 96.4136 197.496 99.6726C175.59 102.477 153.517 113.262 142.696 132.488C123.405 166.686 144.504 214.902 121.047 246.405C96.4683 279.338 37.2118 273.606 18.8375 310.324C11.2621 325.398 13.2724 343.289 21.5327 358.026C32.9646 378.413 53.4213 390.785 74.2884 400.035C139.804 429.128 216.34 431.169 284.02 407.94L283.964 407.984Z" fill="#8C9EFF" fill-opacity="0.49"/>
<path d="M357.531 94.5435L359.385 93.2983C358.472 93.7967 357.924 94.1864 357.531 94.5435Z" fill="#8C9EFF" fill-opacity="0.49"/>
<path d="M342.168 98.8057L342.048 99.8481C342.581 99.1549 342.787 98.6759 342.168 98.8057Z" fill="#8C9EFF" fill-opacity="0.49"/>
<path d="M137.265 243.292C138.955 241.727 141.159 240.069 142.324 238.694C143.489 237.319 143.956 236.317 142.858 236.24L140.384 236.76C139.891 239.722 138.403 241.713 137.265 243.292Z" fill="#8C9EFF" fill-opacity="0.49"/>
<path d="M203.041 98.6471C202.711 98.458 202.331 98.2631 201.951 98.0683C201.152 98.8818 200.459 99.6571 199.772 100.383C200.74 99.8404 201.819 99.2104 203.041 98.6471Z" fill="#8C9EFF" fill-opacity="0.49"/>
<path d="M205.056 89.5732C206.727 89.917 208.436 90.3658 210.046 90.8031C208.938 90.3734 207.334 89.8865 205.056 89.5732Z" fill="#8C9EFF" fill-opacity="0.49"/>
<path d="M445.324 52.1028C446.245 51.1022 447.297 50.2679 448.305 49.378C442.926 50.2162 445.55 51.022 445.324 52.1028Z" fill="#8C9EFF" fill-opacity="0.49"/>
<path d="M25.9436 329.752C26.8087 327.487 27.4503 325.851 27.8208 324.384C26.1499 326.657 24.12 328.988 25.9436 329.752Z" fill="#8C9EFF" fill-opacity="0.49"/>
<path d="M358.198 118.514C359.603 117.67 360.125 117.076 359.928 116.601C358.473 117.439 357.692 118.103 358.198 118.514Z" fill="#8C9EFF" fill-opacity="0.49"/>
<path d="M29.5753 318.45C29.243 318.714 29.0043 319.039 28.7217 319.308C28.5384 320.896 28.355 322.485 27.8394 324.338C29.1437 322.627 30.1996 320.887 29.5753 318.45Z" fill="#8C9EFF" fill-opacity="0.49"/>
<path d="M400.441 342.888C400.441 342.888 399.987 343.339 399.765 343.514C399.941 343.736 400.179 343.411 400.441 342.888Z" fill="#8C9EFF" fill-opacity="0.49"/>
<path d="M307.15 388.418C307.963 387.908 309.401 387.219 310.684 386.562C309.961 386.73 308.893 387.261 307.15 388.418Z" fill="#8C9EFF" fill-opacity="0.49"/>
<path d="M30.4301 295.36L30.5963 295.228C29.8286 295.341 29.9279 295.352 30.4301 295.36Z" fill="#8C9EFF" fill-opacity="0.49"/>
<path d="M452.543 177.197C452.543 177.197 452.228 177.312 452.023 177.339C450.729 179.403 451.46 178.733 452.543 177.197Z" fill="#8C9EFF" fill-opacity="0.49"/>
<path d="M123.341 179.81C123.341 179.81 123.426 179.975 123.465 180.083C123.477 179.981 123.495 179.827 123.507 179.725L123.341 179.81Z" fill="#8C9EFF" fill-opacity="0.49"/>
<path d="M121.97 171.342C124.504 175.106 124.181 177.03 123.568 179.727L129.86 177.082C127.202 175.266 124.611 173.307 121.97 171.342Z" fill="#8C9EFF" fill-opacity="0.49"/>
<path d="M392.946 76.1418L386.881 77.2533C391.521 71.0474 396.572 69.5676 390.406 69.8119C392.946 76.1421 370.598 81.4615 373.946 87.3314C372.72 87.4918 371.499 87.6026 370.241 87.6083C371.137 87.2589 371.133 86.8559 371.985 86.4511C364.65 86.3593 369.754 93.1363 361.217 95.6224C358.135 96.1722 355.851 95.9086 357.523 94.4918C355.614 95.7807 353.655 97.0638 351.663 98.1923C349.752 98.6257 349.901 97.3349 351.806 96.9511C348.594 98.1903 345.323 99.0707 342.041 100.05L342.064 99.8514C340.855 101.171 337.832 103.388 336.31 104.369C333.503 103.844 337.523 103.453 336.704 102.704C334.89 103.602 333.049 104.295 331.191 105.137C328.647 103.636 333.177 101.442 337.097 101.039C333.952 98.2111 332.896 98.6426 331.114 99.6947C329.333 100.747 326.656 102.148 320.912 100.479C322.657 100.177 324.376 99.6715 326.133 99.2705C322.516 95.734 318.558 97.34 312.867 94.7716C314.009 96.2114 324.664 100.661 318.663 102.534C316.898 102.129 314.67 101.822 311.253 103.088C311.324 100.731 308.105 101.165 304.055 100.949L304.62 97.7941C300.285 98.3 300.411 99.8237 297.663 100.966C292.855 99.9076 292.365 97.1846 291.717 94.9466C284.369 92.7906 296.105 100.081 287.022 98.5804C284.003 97.2761 281.379 96.4703 278.461 96.0329L277.369 95.9069L277.22 95.8897L277.121 95.8782L275.505 95.4906L275.207 95.4563L274.6 95.4866C273.745 95.4885 272.889 95.4904 272.028 95.542C270.212 95.5839 268.291 95.6641 266.116 95.7652C261.417 93.7639 267.327 93.9934 265.759 92.7559L260.934 94.463C259.859 94.188 260.342 93.4892 260.58 93.1645C256.721 93.4738 259.723 96.2349 253.758 96.0496C251.68 99.2308 242.562 88.8715 234.508 91.9666C232.774 90.861 235.625 90.1334 235.222 88.8292C224.635 90.3241 226.111 89.7399 217.45 92.8657C215.069 92.1381 212.644 91.3551 210.201 90.7211C215.617 93.0565 208.706 95.8308 203.203 98.6167C205.097 99.6403 206.649 100.574 207.707 100.998C204.757 101.714 201.851 102.485 199.027 103.417C197.919 102.987 198.658 101.815 199.983 100.358C199.391 100.692 198.855 100.983 198.417 101.284C195.081 100.547 196.432 98.4389 198.626 96.4282C199.827 96.919 201.016 97.5093 202.162 98.044C204.263 95.9722 206.336 93.6961 205.748 91.8171C205.151 92.2009 203.946 92.6151 202.659 92.869C203.23 92.2809 203.585 91.8189 203.272 91.4809C202.903 91.1868 201.962 91.9333 200.489 92.9205L197.904 89.6037L197.533 91.0701C193.18 90.8695 188.704 90.8562 184.232 91.2457C180.069 94.1863 176.561 97.5546 172.809 101.297C169.062 104.99 165.044 108.853 159.898 113.34C161.223 109.267 158.088 109.408 156.482 106.758C161.514 107.188 165.581 99.4065 173.24 97.121C169.383 98.2857 169.572 96.6473 170.376 95.7842C166.435 98.5491 162.675 101.486 159.272 104.816C158.184 102.477 155.707 104.757 152.069 106.198C154.702 107.357 153.037 109.58 150.57 112.214C148.053 114.841 144.788 118.287 143.623 120.97C142.141 120.296 141.473 117.804 146.852 113.042C142.712 114.476 142.01 117.514 141.628 120.388C141.284 123.367 141.223 126.076 137.978 128.469C138.851 127.01 139.527 126.384 139.145 125.334C137.98 129.325 133.21 137.528 132.752 134.959L133.487 133.384C131.942 135.872 130.945 139.279 129.677 142.855C128.806 146.478 127.907 150.348 127.748 153.902C127.122 161.074 128.218 166.835 130.179 167.716C129.616 167.801 125.141 166.027 124.366 165.334C128.676 172.019 133.369 177.995 138.113 183.975C134.477 182.348 125.72 188.481 123.73 180.001C123.146 182.449 122.554 185.399 123.829 190.477C124.371 188.829 129.128 186.41 129.422 188.657C125.301 194.722 127.268 192.936 123.611 200.212C124.482 197.897 130.106 200.609 129.813 204.449C128.983 203.8 124.172 204.502 123.626 203.131C125.423 206.307 126.978 209.404 128.608 212.712C127.78 210.302 123.97 211.925 122.064 213.617C122.662 213.233 122.394 215.114 121.988 217.331C121.575 219.597 120.743 222.017 120.81 223.181L122.843 219.945C121.499 224.619 122.652 227.268 123.815 230.269C124.443 231.801 124.972 233.321 124.92 235.076C124.875 236.781 124.771 238.983 123.167 241.112C122.915 239.372 118.407 235.28 115.396 238.706C115.701 239.546 116.297 240.923 116.835 242.796C117.33 244.614 117.635 246.762 117.702 249.235C117.757 250.499 117.708 251.801 117.603 253.147C117.454 254.438 117.106 255.706 116.654 257.013C115.809 259.531 114.589 262.258 112.716 264.104L110.134 263.806L107.367 266.858L104.386 269.583C104.961 268.089 105.803 266.023 106.73 263.665C107.551 261.345 108.511 258.689 109.428 255.977C110.152 253.193 110.765 250.497 111.332 248.198C111.811 245.788 111.87 243.531 112.203 241.96C108.951 243.546 110.345 241.493 106.975 244.978C105.815 244.995 105.918 244.102 106.43 243.155C106.942 242.208 107.538 240.968 107.948 240.462C107.328 241.045 106.751 241.683 106.081 242.259L103.889 243.817L101.746 245.381L99.2732 246.756C100.444 247.948 99.1549 249.962 97.5298 251.837C95.8112 253.651 94.0429 255.459 94.8716 256.561C98.5112 253.359 101.671 249.951 104.137 246.462C105.412 247.615 105.609 250.707 103.917 254.033C102.407 257.531 98.8815 261.049 94.3368 262.939C91.5393 262.767 93.3859 256.792 92.6832 255.906C92.1581 257.405 85.5778 261.677 84.3328 261.131C85.364 260.042 86.3894 259.003 87.3212 257.904C82.0853 258.809 81.0254 265.377 73.666 264.629C71.4834 265.232 65.7147 262.906 66.0374 264.905C70.9009 267.227 75.6287 278.137 74.2118 281.696C73.3506 281.748 61.5592 282.349 58.4218 281.635C53.6977 280.284 61.2462 272.855 57.2668 271.591C57.4615 272.519 55.8365 274.394 55.1051 275.064C52.4661 275.262 55.0021 272.033 50.0411 274.479C50.4955 277.953 39.5691 278.905 48.7559 278.205C44.2722 281.31 43.2297 279.881 37.5641 283.202C39.0191 283.671 38.6066 285.938 37.5907 288.638C36.6129 291.443 34.8294 294.256 33.2865 296.292C32.9867 295.402 31.3922 295.268 30.636 295.281C28.5316 296.95 26.6546 298.394 25.1575 300.032C23.6165 301.615 21.9054 302.927 20.7559 304.605C19.507 306.272 18.2142 307.884 17.0474 309.712C15.9742 311.6 14.9716 313.748 14.1829 316.223C13.0544 316.847 10.9367 321.684 10.0145 319.213C10.2722 320.903 11.0933 322.507 10.8641 325.801C9.15119 328.873 9.15879 327.063 9.1512 324.949C9.18753 322.891 9.36325 320.496 7.19016 322.761C8.8648 323.507 8.99444 331.974 10.9402 336.475C12.3513 335.582 12.2464 333.004 11.8894 329.994C11.4827 326.979 11.0397 323.407 10.824 320.917C14.9867 321.9 17.6236 330.002 21.2248 338.467C23.751 345.349 19.3325 342.223 20.1612 343.325C21.809 350.408 25.1563 352.353 27.6443 353.898C30.331 355.466 32.401 356.711 34.6522 362.052C35.4522 367.326 30.6191 365.611 29.7827 367.628C24.7741 363.075 25.2573 358.453 23.1703 354.74C23.5655 356.547 24.1709 358.277 24.7704 360.056C22.9048 358.785 20.0502 355.185 19.8459 352.596C19.5652 355.028 22.3873 361.089 26.9758 367.103C31.4535 373.204 37.7262 379.009 41.8793 383.563C44.1173 384.224 47.6938 385.492 46.9014 383.639C45.8168 383.011 44.7322 382.383 43.6533 381.705C42.2728 377.974 51.003 383.409 47.8886 379.88C52.7273 381.545 58.4196 382.353 63.7605 386.642L63.3766 389.968C63.7222 389.153 60.3348 386.246 58.2439 386.055C61.2839 386.306 65.6298 394.857 70.3693 392.586L66.9647 388.521C72.0441 389.409 78.7847 388.979 84.0091 392.098C82.6401 388.267 82.5751 391.882 80.0183 387.009C80.8069 389.766 77.3143 388.206 74.1254 386.631C70.9308 385.105 68.0838 383.619 69.6534 387.02C67.6351 381.404 63.7415 382.011 60.9404 376.204C60.5833 377.119 61.5361 378.889 57.8068 375.893C57.4918 376.007 56.8349 376.032 56.4263 376.086C56.3384 375.975 56.2944 375.92 56.2009 375.859L56.3766 376.08C56.1283 376.051 56.073 376.095 56.4148 376.185C57.106 377.17 57.5986 378.133 57.6177 378.839C54.3142 379.565 47.9537 374.957 45.2746 374.195C43.3689 371.963 46.9473 374.086 46.4089 372.213C45.0417 371.854 43.6248 371.489 42.3187 371.037C43.4473 369.104 39.6361 363.331 45.124 366.782C43.711 365.512 42.464 364.111 41.2171 362.709C39.8843 359.436 37.7973 355.724 35.5308 354.003C34.5971 351.632 30.2395 349.72 32.7849 350.769C31.0721 348.609 29.5369 346.218 28.2117 343.751L28.7426 343.51C27.5779 339.653 25.9663 335.744 25.3553 331.448C24.7826 327.256 25.4816 322.507 28.8787 319.227C29.022 317.986 29.2263 316.651 29.7896 315.257C30.4962 313.93 31.3308 312.366 32.7228 310.766L34.8233 311.31C36.2765 308.308 42.7384 305.935 42.9581 303.596C44.5067 304.126 46.147 303.863 47.8827 303.208C49.8114 302.626 51.7533 301.492 53.9054 300.281C58.2534 297.915 63.2603 295.072 66.9343 294.188L66.3157 291.702C71.2404 290.006 75.787 287.663 81.9052 284.345L80.7214 282.397C85.5277 278.675 95.6501 278.586 104.623 273.635C104.392 274.765 102.009 275.798 100.176 275.989C106.645 275.729 112.166 271.487 116.839 266.743C119.134 264.292 121.21 261.563 123.427 259.354C125.435 256.768 127.553 254.547 130.221 252.793C131.222 249.789 132.564 248.183 134.199 246.661C134.071 246.898 133.943 247.135 133.92 247.333C134.097 247.102 134.348 246.678 134.592 246.304C135.656 245.37 136.532 244.315 137.525 243.121C136.517 244.011 135.608 244.912 134.959 245.743C135.9 243.688 137.189 240.366 137.97 237.085L140.693 236.594C140.727 236.296 140.8 236.104 140.884 235.811C142.778 232.911 140.609 232.962 138.375 234.013C138.52 232.319 138.499 230.757 138.289 229.525C142.645 227.965 138.942 221.249 143.319 218.635C141.839 216.201 143.241 203.181 138.899 201.573C139.462 201.488 139.758 200.666 139.73 202.223C140.356 198.975 140.877 195.765 139.697 192.912L142.772 191.556L138.689 184.646C140.578 180.487 141.722 178.858 144.023 182.896C140.532 173.035 142.721 174.999 139.572 166.536L141.523 167.063C141.651 164.21 139.459 159.228 141.392 157.74C143.596 154.775 145.068 147.248 148.66 139.663C151.96 131.994 158.817 124.887 165.938 122.036C162.997 120.49 164.865 120.001 167.196 119.415C169.522 118.878 172.239 118.437 171.476 116.336C172.946 117.11 175.138 116.86 173.528 119.038C176.574 116.623 179.507 116.056 182.005 115.338C184.546 114.675 186.647 113.912 188.799 111.393C190.03 112.491 187.668 113.778 188.659 114.345C189.164 113.9 190.775 112.577 191.711 113.188C192.646 113.799 190.894 114.603 189.891 115.443C197.268 113.427 197.527 109.432 197.6 105.315C202.181 106.599 204.186 106.226 207.272 103.463C208.883 104.756 211.412 105.954 206.143 106.704C207.656 106.677 212.191 107.05 216.451 107.189C220.705 107.378 224.685 107.334 224.967 105.757C225.874 106.616 229.22 106.399 230.06 106.093C236.938 107.088 237.5 107.455 244.357 108.196L242.539 107.382C245.848 103.991 248.367 107.451 253.994 107.95L253.75 108.324C265.997 113.36 259.469 108.028 271.571 113.45L271.306 110.954C271.579 110.331 271.923 109.969 272.398 109.772C272.608 109.695 272.868 109.625 273.122 109.604C272.923 109.581 273.513 109.699 272.731 109.508L272.78 109.514L272.879 109.526L273.078 109.548L273.519 109.65C274.732 110.041 276.185 110.964 277.77 112.052C281.001 114.135 285.167 116.83 289.175 116.538L286.721 114.695C288.942 114.197 291.444 116.498 294.121 119.02C296.76 121.438 299.551 124.275 301.763 124.732C302.71 125.243 300.181 125.354 298.763 125.442C310.159 129.575 300.607 122.536 309.174 122.417C310.684 124.151 306.871 126.68 312.752 127.157C314.222 127.931 318.561 126.52 323.34 125.21C328.181 123.806 333.375 122.393 337.538 123.377C335.6 122.298 333.81 121.236 337.553 119.756C343.238 118.45 354.766 121.441 358.896 115.73C359.74 115.827 360.114 116.071 360.229 116.386C362.282 115.164 365.694 113.495 368.77 111.687C371.808 109.774 374.537 107.926 375.284 106.251C377.083 107.666 379.529 107.395 382.177 106.242C384.738 104.978 387.661 102.749 390.043 100.861C394.866 96.9904 399.276 93.2228 401.099 96.6027L412.43 89.9618L412.482 90.8229C420.097 87.1739 421.793 84.2505 423.582 81.3881C425.532 81.0597 424.583 82.3085 424.586 82.7114C436.048 79.305 436.619 78.7171 445.001 72.3394L446.565 74.4817C447.629 73.548 451.918 73.4394 456.739 73.9455C461.672 74.3638 466.635 75.3894 471.286 75.6244C471.109 75.8554 470.759 76.2678 469.997 76.3308C475.317 76.4416 479.633 81.7693 481.639 86.1766C483.784 90.7003 484.568 94.3629 489.438 95.3273C490.692 97.5347 491.769 99.9732 492.525 102.576C492.657 97.5099 493.44 97.7009 494.677 98.7493C495.915 99.7976 497.131 101.9 497.765 99.4578C498.727 104.197 494.643 110.819 494.66 105.438L495.155 104.64C492.808 103.615 492.386 106.836 491.561 110.061C490.791 113.243 489.43 116.758 487.992 116.139C484.91 125.845 478.621 134.125 471.031 141.047C463.478 148.074 454.7 153.953 446.168 160.313L450.329 161.749L444.195 166.072C442.074 166.582 440.352 165.377 444.736 162.261C441.265 162.263 438.515 169.089 438.881 169.836C429.404 175.232 439.619 163.884 436.978 165.843L433.565 168.82L434.654 168.543C432.647 171.984 433.391 173.378 428.087 177.495C424.363 179.681 424.953 177.184 423.58 178.182C423.404 177.961 422.917 178.257 421.525 179.857C418.961 182.026 416.385 184.294 413.891 186.723C415.543 186.36 417.177 186.147 418.817 185.883C416.581 190.002 412.105 192.605 417.668 191.486C413.57 192.12 406.598 198.912 401.86 207.27C396.836 215.494 395.003 224.841 393.725 226.756C394.386 233.675 393.78 239.793 393.549 247.463C394.17 245.573 397.359 244.532 397.028 250.883C393.633 249.787 392.986 252.781 392.732 256.726C392.478 260.671 392.634 265.419 390.509 268.142C393.31 263.484 392.88 285.52 396.747 278.168C396.609 283.284 394.272 278.688 393.014 282.618C394.711 288.398 394.463 294.909 393.183 301.201C391.904 307.493 389.566 313.361 387.387 319.599C388.075 320.182 390.229 318.519 390.254 321.792C387.851 323.426 385.566 324.923 383.055 326.193C382.216 328.662 386.125 330.974 380.855 333.485C381.876 333.352 383.417 333.077 382.566 334.79C372.903 344.843 363.008 355.172 351.346 364.24C339.69 373.258 326.466 381.039 311.608 383.802C315.908 383.594 313.646 384.892 310.919 386.288C312.886 385.811 311.849 388.257 312.7 389.16C308.48 389.981 304.272 390.703 300.08 391.276C299.318 395.263 287.96 396.467 287.83 399.773L291.321 397.861C287.678 403.277 301.201 402.926 302.379 407.539C306.257 401.396 319.916 406.846 326.273 396.663C328.708 396.491 325.309 398.916 326.869 399.348C328.223 396.335 330.692 394.557 336.159 392.521L335.869 393.293C342.747 389.056 347.792 386.318 353.202 383.471C358.568 380.568 364.287 377.656 371.959 372.203L369.402 371.254C372.685 368.966 373.789 368.993 375.597 368.145C376.703 362.487 366.924 375.294 367.594 369.485C371.142 369.694 376.542 365.185 381.469 360.421C386.445 355.663 390.811 350.532 394.11 350.712C398.067 345.634 390.904 350.593 394.718 345.449L396.889 344.945L396.259 342.558C398.756 339.224 401.519 338.386 402.621 338.865C402.022 339.701 401.351 341.586 400.834 342.583C405.541 338.85 408.069 328.275 409.114 326.635C408.085 328.579 406.874 330.351 405.658 332.172C408.988 323.803 412.341 313.927 413.289 303.974C414.28 294.077 413.453 284.675 411.322 276.983L410.318 278.276C407.288 266.607 410.58 268.596 408.695 256.154L408.997 256.591C407.716 254.179 406.985 250.925 407.12 247.57C408.438 250.54 409.633 241.924 411.09 245.865C410.093 240.116 409.906 238.685 409.315 237.711C408.828 236.699 407.732 236.17 406.446 232.048L408.566 230.683C407.976 229.256 407.621 228.41 407.411 227.178C407.201 225.947 407.285 224.347 408.119 221.475C407.988 226.541 411.971 219.052 412.173 224.71C415.979 220.068 417.194 216.083 418.506 212.561C419.812 209.09 421.28 206.392 425.327 206.205C425.26 202.424 422.925 203.915 420.856 206.142C418.788 208.368 417.198 211.253 417.635 209.644C414.666 210.961 417.247 203.411 420.482 200.665C423.404 197.581 429.829 199.882 437.347 193.153C436.566 193.818 436.78 194.144 435.999 194.809C439.648 193.268 440.596 188.547 445.679 187.222C445.9 183.123 450.733 183.53 448.988 179.907C446.567 182.143 444.151 184.329 441.829 186.577C445.434 182.365 446.876 175.538 455.668 171.723C455.542 172.815 453.997 175.303 452.804 176.926C455.698 176.254 456.506 173.178 459.517 172.369C461.257 176.041 450.239 180.404 447.493 186.325C450.707 185.941 454.728 177.249 454.927 182.504C455.127 175.534 463.953 176.654 467.349 168.594L468.454 170.784C469.182 169.711 470.412 167.337 472.184 165.932L471.009 170.878C474.158 164.952 481.874 164.786 485.486 159.216C475.987 168.282 481.412 159.199 476.209 161.567C480.916 155.217 483.452 154.605 486.595 153.961C489.595 153.251 493.334 152.676 498.568 144.376C497.42 146.91 491.541 151.211 493.185 147.427C495.784 144.96 499.254 141.487 501.472 140.133C507.482 128.601 498.446 140.639 499.882 135.17C504.44 132.728 501.74 129.096 502.8 123.835L505.07 124.65C508.139 118.112 507.053 116.628 506.113 115.614C505.031 114.534 504.355 113.852 505.944 107.495C506.879 109.414 507.748 111.477 508.462 113.571C508.638 111.177 508.664 108.765 508.493 106.33L511.112 108.041C509.491 99.8551 509.904 97.5884 508.923 89.5264C507.611 91.7395 504.756 89.4481 502.171 83.5151C501.888 81.1683 502.66 81.4585 502.975 81.344C503.29 81.2294 503.271 80.5229 500.578 76.3887C503.03 77.376 506.07 78.9342 505.702 83.8723C506.595 83.9754 507.936 85.438 508.812 85.6901C508.825 79.9061 503.342 72.9344 500.854 70.0815C501.665 71.3322 502.652 72.8045 502.841 73.7822C500.989 71.9586 498.965 70.3165 496.918 68.8728C494.76 67.517 492.69 66.2718 490.504 65.1643C489.177 63.1497 491.195 63.5335 493.03 64.1981C491.831 63.2548 490.519 62.8519 489.181 62.2446C487.793 61.6316 486.305 61.0072 484.344 60.1269C486.28 59.0423 487.145 56.7775 493.202 60.0926C490.878 58.8685 488.659 57.6063 486.234 56.8233C483.826 55.8914 481.445 55.1639 478.98 54.7284C478.428 53.407 472.343 50.3402 474.374 50.1723C472.358 49.3358 470.036 48.9672 467.613 49.0397C465.157 48.9575 462.644 49.3719 460.131 49.7862C457.574 50.1451 455.17 50.924 452.713 51.2944C450.332 51.8749 447.885 52.1462 445.556 52.2798C445.151 52.7362 444.282 53.2898 442.441 53.9829C434.068 55.4817 426.13 55.8234 418.448 62.2316C416.319 61.9356 414.146 61.5841 412.005 61.3873C405.757 65.3953 420.325 62.096 410.141 68.8193C403.381 73.7744 406.051 67.6428 403.019 68.1984C400.194 71.7463 395.657 78.3667 387.572 79.5467C389.489 77.7556 391.456 77.278 393.427 75.8955L392.946 76.1418ZM318.701 102.639C320.221 102.11 323.125 100.483 324.339 101.73C322.793 104.671 321.336 103.346 318.701 102.639ZM189.637 95.8438C190.762 94.8165 192.826 94.8034 195.225 95.382C193.617 95.8001 191.833 95.9966 189.637 95.8438ZM37.1537 360.429L36.9551 360.406C35.798 357.355 36.1742 358.455 37.1537 360.429ZM40.734 366.024C41.4615 366.259 41.6448 365.978 41.6906 365.581C40.9783 365.65 39.8346 364.662 38.8914 363.246C38.7004 364.028 38.9447 364.962 40.734 366.024ZM423.303 179.71L424.879 179.137C422.686 182.003 423.017 180.884 423.303 179.71Z" fill="#8C9EFF" fill-opacity="0.49"/>
<path d="M204.728 90.5928C205.24 90.9537 205.387 91.4236 205.54 91.8437C206.193 91.416 206.2 90.9136 204.728 90.5928Z" fill="#8C9EFF" fill-opacity="0.49"/>
<path d="M444.831 52.6504L445.129 52.6848C445.257 52.448 445.33 52.2552 445.347 52.1063L444.831 52.6504Z" fill="#8C9EFF" fill-opacity="0.49"/>
<path d="M53.6201 271.725C55.2661 271.411 56.3087 271.532 57.042 271.717C56.9064 271.148 56.0242 270.945 53.6201 271.725Z" fill="#8C9EFF" fill-opacity="0.49"/>
<path d="M17.2836 339.924C16.6898 338.095 16.2011 336.227 15.8173 334.322C14.9256 333.766 14.5322 335.431 15.1356 337.614C15.9356 338.964 16.6554 341.009 17.2779 339.974L17.2836 339.924Z" fill="#8C9EFF" fill-opacity="0.49"/>
<path d="M9.95177 342.047C8.88817 341.672 5.99552 332.736 7.47713 341.258C8.41278 341.869 10.5608 348.104 9.95177 342.047Z" fill="#8C9EFF" fill-opacity="0.49"/>
<path d="M65.4591 276.359L64.0384 276.899L66.0109 281.604L65.4591 276.359Z" fill="#8C9EFF" fill-opacity="0.49"/>
<path d="M115.54 228.208C112.303 232.714 117.875 230.64 114.497 234.627C114.992 236.445 117.337 231.383 117.7 233.035C118.118 229.411 119.107 227.814 115.54 228.208Z" fill="#8C9EFF" fill-opacity="0.49"/>
<path d="M117.705 233.088C117.636 233.684 117.611 234.335 117.624 235.091C117.75 233.999 117.764 233.447 117.705 233.088Z" fill="#8C9EFF" fill-opacity="0.49"/>
<path d="M307.523 95.8197L307.183 96.5855C307.737 97.4544 308.669 97.6625 310.561 97.8306C309.526 97.208 308.552 96.4918 307.523 95.8197Z" fill="#8C9EFF" fill-opacity="0.49"/>
<path d="M361.228 89.7341L360.338 90.034L363.073 92.0602L361.228 89.7341Z" fill="#8C9EFF" fill-opacity="0.49"/>
<path d="M404.296 62.8081C402.327 63.738 400.355 65.573 398.386 66.5029C402.327 63.738 406.469 65.7756 404.296 62.8081Z" fill="#8C9EFF" fill-opacity="0.49"/>
</svg>
