<svg width="395" height="244" viewBox="0 0 395 244" fill="none" xmlns="http://www.w3.org/2000/svg">
<path d="M256.777 0.71292C298.488 -0.64571 341.065 8.9231 375.187 32.7092C381.182 36.8926 387.01 41.6245 390.849 47.8159C394.688 54.0072 396.296 62.013 393.499 68.7474C390.055 77.0123 381.212 81.4138 373.153 85.3561C312.676 114.917 258.505 157.271 215.206 208.809C206.908 218.703 198.796 229.081 187.973 236.135C177.15 243.189 162.763 246.319 151.235 240.488C142.481 236.06 137.06 225.351 138.578 216.102C140.93 201.744 134.523 187.145 121.198 181.254C118.598 180.098 115.92 179.181 113.129 178.497C99.5268 175.14 85.2458 177.242 71.398 179.347C57.5502 181.453 43.2546 183.534 29.6581 180.141C16.0615 176.748 3.19719 166.442 1.23116 152.598C-0.207087 142.473 4.26676 132.438 9.58364 123.687C33.5843 84.0834 75.177 58.5686 117.157 38.9339C157.977 19.8376 201.322 4.71858 246.285 1.28968C249.764 1.02809 253.231 0.836632 256.721 0.721319L256.777 0.71292Z" fill="#FFABD8" fill-opacity="0.62"/>
</svg>
