<svg width="306" height="349" viewBox="0 0 306 349" fill="none" xmlns="http://www.w3.org/2000/svg">
<path d="M165.191 175.915C186.37 201.847 221.034 215.802 254.942 212.051C263.171 211.141 271.59 209.275 279.528 211.232C287.453 213.198 294.676 220.653 292.881 228.833C291.504 235.156 285.547 239.356 280.098 242.895C248.205 263.516 215.304 284.563 178.565 292.119C141.816 299.661 99.8102 290.645 78.9103 260.436C67.9157 244.529 63.8206 224.566 62.7957 204.912C61.3637 177.406 65.7202 148.871 78.8948 124.158C87.2714 108.446 124.142 59.2823 139.187 86.2709C145.612 97.8 141.903 118.493 144.51 131.405C147.807 147.746 154.765 163.195 165.196 175.953L165.191 175.915Z" fill="#FDC74B"/>
<path d="M146.74 104.047C147.257 105.236 148.556 101.643 148.754 103.002C149.138 100.689 148.75 98.8669 148.379 97.307C148.47 99.095 148.034 101.212 146.74 104.047Z" fill="#FDC74B"/>
<path d="M148.105 102.443C147.822 101.016 148.288 99.2418 148.379 97.307C147.866 99.5437 147.168 101.838 146.667 103.959C147 104.125 147.539 104.801 148.084 102.479L148.105 102.443Z" fill="#FDC74B"/>
<path d="M132.372 80.8442C132.456 80.744 132.685 80.7695 133.016 80.8818C133.358 80.987 133.77 81.2444 134.213 81.6371C134.645 82.0367 135.181 82.4561 135.611 83.0565C136.041 83.6346 136.45 84.2712 136.775 84.9188C137.689 85.951 138.26 85.9257 138.496 85.2374C138.614 84.8933 138.64 84.3886 138.585 83.7611C138.497 83.1544 138.277 82.4373 137.973 81.6866C137.858 81.7184 137.775 81.774 137.414 81.5042C137.053 81.2121 136.405 80.6684 135.117 79.5964C136.031 80.6509 139.333 85.656 137.338 83.792C136.66 83.0238 136.199 82.4665 135.86 82.049C135.49 81.6523 135.275 81.3744 135.101 81.1133C134.743 80.6204 134.665 80.1852 133.925 79.3918C134.456 80.235 133.289 79.5926 132.163 79.0564C130.973 78.6287 129.832 78.3893 130.126 79.1247C130.974 79.4917 131.874 79.824 132.73 80.4295C132.707 80.5995 131.756 80.1458 132.362 80.8065L132.372 80.8442Z" fill="#FDC74B"/>
<path d="M142.564 87.8215L142.719 88.8015C143.014 87.9988 143.35 87.2563 143.889 86.3208C144.255 85.4999 144.703 84.5526 145.244 83.3705C144.415 82.9975 143.279 83.1606 142.543 83.3026C141.808 83.4447 141.294 83.6705 140.807 83.9362L141.972 84.563C142.178 84.8733 142.327 85.2218 142.476 85.5703C142.832 86.229 143.072 86.9642 142.788 88.0335L142.5 87.8497L142.564 87.8215Z" fill="#FDC74B"/>
<path d="M144.455 95.5961C143.787 95.1849 143.239 94.1157 142.673 93.5116C142.072 92.9051 141.578 92.7555 141.28 94.0344C142.096 98.2689 142.793 96.7003 143.49 99.1783C142.34 92.1737 144.469 101.042 144.352 95.6891C144.822 97.0362 144.948 98.3102 145.085 99.5017C145.107 98.1543 145.199 96.8616 145.176 95.5944C145.165 95.677 145.154 95.7096 145.132 95.7747L145.155 95.8095C145.067 96.17 144.988 96.2979 145.018 95.9003C145.007 95.8829 144.983 95.798 144.96 95.7631C144.8 95.7691 144.639 95.675 144.5 95.5658C144.366 93.392 144.737 95.132 144.96 95.7631C145.029 95.7678 145.086 95.8049 145.144 95.7921C144.573 93.4058 143.796 91.0557 142.723 88.8022C143.004 89.5705 143.184 90.4318 143.502 91.5023C143.667 92.0462 143.833 92.6402 144.045 93.3038C144.188 93.9629 144.332 94.7219 144.5 95.5658L144.455 95.5961Z" fill="#FDC74B"/>
<path d="M143.638 114.495C143.781 114.952 144.135 115.344 144.124 116.781C143.943 118.031 143.725 116.77 143.444 116.832C143.718 117.728 144.234 119.92 144.478 117.174L144.346 116.734C144.503 114.272 145.401 111.091 145.548 111.52C144.823 112.228 144.311 112.844 143.638 114.495Z" fill="#FDC74B"/>
<path d="M141.504 82.1956L144.141 81.7207C142.152 80.9501 139.491 80.59 137.051 80.2959C138.524 80.9127 140.219 81.4182 141.464 82.2228L141.504 82.1956Z" fill="#FDC74B"/>
<path d="M186.811 287.044C185.828 287.106 184.831 287.115 183.825 287.111C186.977 285.262 189.458 284.837 186.624 284.701C186.82 287.181 175.781 287.52 175.814 289.721L173.853 289.576C174.397 289.5 174.463 289.354 174.992 289.288C171.185 288.86 172.544 291.424 167.7 291.685C166.013 291.705 164.823 291.517 165.925 291.111C164.71 291.47 163.49 291.668 162.251 291.961C161.164 291.989 161.411 291.56 162.484 291.541C160.598 291.693 158.707 291.99 156.812 292.005L156.85 291.939C156.051 292.307 154.202 292.883 153.294 293.119C151.849 292.794 154.032 292.874 153.659 292.591C152.605 292.761 151.532 293.025 150.468 293.12C149.199 292.475 151.832 292.031 154.001 292.058C151.105 289.801 151.372 292.663 145.115 290.987L148.078 290.854C147.164 290.156 146.148 289.893 144.939 289.676C143.735 289.436 142.365 289.163 140.789 288.579C141.142 288.834 142.719 289.54 143.804 290.186C144.884 290.855 145.469 291.425 143.758 291.562C142.809 291.275 141.576 291.054 139.695 291.305C139.791 290.465 137.967 290.556 135.762 290.165L136.086 289.114C133.676 289.002 133.755 289.582 132.271 289.813C129.621 289.248 129.303 288.155 128.861 287.368C124.767 286.172 131.412 289.384 126.434 288.368C124.734 287.784 123.294 287.313 121.722 286.951C120.933 286.782 120.107 286.617 119.228 286.466C118.789 286.391 118.312 286.321 117.826 286.236C117.344 286.128 116.853 286.005 116.324 285.888C114.139 284.606 116.968 285.439 116.26 284.808L113.884 284.776C113.388 284.555 113.658 284.375 113.786 284.29C111.93 283.872 113.188 285.3 110.365 284.32C109.749 284.688 108.557 283.604 107.071 282.389C105.534 281.248 103.913 279.674 101.99 279.34C101.387 278.619 102.724 278.996 102.701 278.501C101.54 278.049 100.671 277.729 100.03 277.441C99.3924 277.131 98.9441 276.919 98.4957 276.707C97.6085 276.297 96.7823 276.01 94.7477 275.261C93.9135 274.408 93.2641 273.371 92.5199 272.438C93.9268 274.766 90.8402 273.33 88.0276 271.935C88.4694 272.845 88.8359 273.641 89.1324 274.117L87.1277 272.737L85.2558 271.187C84.9879 270.631 85.5925 270.739 86.4518 270.984C86.1688 270.805 85.8809 270.649 85.6592 270.531C84.7795 268.995 85.861 269.235 87.1214 269.682C87.3609 270.257 87.5768 270.828 87.8069 271.388C89.1007 271.732 90.4376 271.864 90.6849 271.251C90.3733 271.152 89.8591 270.841 89.345 270.469C89.6992 270.539 89.9449 270.539 89.917 270.374C89.8654 270.204 89.3555 270.054 88.6571 269.682L88.8125 268.069L88.3018 268.225L86.5455 265.803C86.2725 265.393 85.9569 265.011 85.6745 264.587L84.9171 263.295C81.3798 260.751 77.5199 258.707 73.8405 252.627C75.4394 253.767 75.3109 252.282 76.2853 251.9C76.1473 254.092 79.1892 256.354 80.9628 259.356C80.0597 257.754 80.6975 257.819 81.0937 258.107C79.647 256.58 78.3092 254.94 77.0047 253.257C77.8371 252.97 76.9377 251.773 76.5402 250.16C75.5288 252.056 73.4833 246.4 72.1235 244.142C72.6017 243.784 73.3473 244.165 74.4218 247.102C74.2894 243.458 70.8536 243.681 70.7733 240.023C71.0313 240.749 71.0538 241.182 71.4455 241.371C70.9278 240.593 70.4165 239.118 70.1408 237.935C69.9029 236.747 69.8957 235.875 70.2631 236.303L70.4833 237.034C69.8471 234.541 68.8693 230.765 68.0319 227.508C67.1851 224.237 66.3653 221.498 65.5864 221.22C65.7614 221.145 67.4187 221.634 67.7488 221.884C65.6438 219.122 63.7045 216.21 61.7654 213.236C63.0867 213.928 65.7274 210.543 66.8647 214.742C66.9057 213.512 66.9711 211.98 66.3445 209.439C66.2336 210.288 64.7227 211.679 64.513 210.534C65.6555 207.266 65.0811 208.28 66.0695 204.32C65.8488 205.588 63.8535 204.283 63.8445 202.27C64.1508 202.576 65.7588 202.038 65.9932 202.76C65.2791 201.134 64.6077 199.479 63.9741 197.82C64.3347 199.069 65.5944 198.008 66.1359 196.914C65.9604 197.173 65.9442 196.103 65.976 194.798C66.0313 193.496 66.1203 191.969 66.0322 191.314L65.5448 193.412C65.7316 190.616 65.1068 189.216 64.4961 187.807C63.8855 186.398 63.1804 184.97 63.4806 182.16C63.8143 182.876 65.7865 183.993 66.2426 181.202C65.7908 180.523 64.741 178.978 63.8106 176.965C62.8472 174.934 62.0552 172.421 62.0476 169.857L62.7303 168.975L62.7546 165.043C63.7353 167.716 65.8292 174.767 66.7223 178.416C67.3938 176.379 67.4419 177.897 67.7381 174.804C68.3787 173.767 68.3478 176.581 68.2746 177.486C68.6115 175.101 69.0807 172.73 69.5357 170.368C68.3021 170.514 69.3376 164.749 68.3498 164.834C68.272 167.516 68.2132 170.166 68.2772 172.815C67.0954 173.009 65.644 167.814 66.8811 162.689C67.593 161.482 68.6684 164.051 69.0702 164.009C68.8358 163.287 69.3145 159.054 69.7266 158.658C69.7341 159.407 69.8125 160.171 69.8578 160.916C70.3433 159.553 70.2567 158.347 70.2694 157.074C70.2821 155.801 70.347 154.453 71.3669 152.939C71.7573 151.803 73.7467 149.931 73.1476 149.554C71.3718 151.039 67.3619 150.338 66.7942 148.778C66.9654 148.359 69.9042 142.96 71.0174 141.894C72.6657 140.371 72.3122 145.5 73.7096 144.184C73.4359 144.019 73.4484 142.869 73.4826 142.398C74.1706 141.308 74.2129 143.218 75.0135 140.606C74.0329 139.748 77.1672 135.504 74.545 139.041C75.27 136.438 75.8133 136.485 77.0257 133.6C75.9278 134.227 75.8348 129.966 76.7677 127.368C76.956 127.651 77.576 127.259 77.8694 127.085C80.4244 122.124 82.5186 119.917 85.379 115.631C85.871 115.386 87.5721 113.542 87.3754 114.692C87.6325 113.971 87.6817 113.184 88.6113 111.873C91.2197 109.977 86.671 114.834 89.0178 113.622C88.5751 113.08 90.6627 109.755 91.717 107.709C90.4462 107.615 88.3847 111.779 87.4531 113.886C86.2644 113.085 87.3053 108.927 90.1809 104.202C92.6286 100.557 92.0828 103.306 92.4012 102.585C95.0789 99.5005 95.7685 97.7985 96.4245 96.2614C97.09 94.7385 97.7125 93.3665 100.487 91.2582C103.07 89.9703 101.868 92.4409 102.757 92.483C100.538 95.2416 98.5893 96.006 97.0253 97.8404C97.783 97.1943 98.5501 96.5623 99.3266 95.9445C98.7759 96.9629 97.4054 98.8726 96.359 99.6697C97.4095 99.0942 99.6654 96.5147 102.427 93.7418C105.18 90.9547 108.476 87.9695 111.141 86.3421C111.786 85.4037 113.141 83.9937 112.19 84.2581C111.674 84.6825 111.201 85.14 110.703 85.5927C108.793 86.1686 113.036 82.4522 110.831 83.7542C112.679 81.7311 114.76 79.1659 118.577 77.7313L119.705 78.3484C119.606 78.2306 118.953 78.3582 118.225 78.6177C117.525 78.9197 116.735 79.3631 116.332 79.7734C116.934 79.1697 118.39 78.7119 119.894 78.3248C120.617 78.0888 121.369 77.8953 122.008 77.6546C122.646 77.4139 123.153 77.0366 123.522 76.6075C122.549 76.622 121.599 76.7638 120.597 76.8585C121.24 76.4717 121.917 76.0424 122.632 75.6084C123.375 75.2169 124.212 74.8442 125.064 74.462C125.972 74.1647 126.931 73.9144 127.943 73.7726C128.978 73.7581 130.046 73.6398 131.099 73.96C130.189 73.2391 129.919 73.3571 129.532 73.3289C129.144 73.3621 128.62 73.2208 127.043 72.7594C127.732 73.0562 127.382 73.2684 126.569 73.462C126.167 73.5659 125.647 73.6462 125.089 73.7313C124.545 73.8682 123.964 74.0099 123.382 74.1515C121.098 74.7511 119.23 75.605 121.247 75.6514C119.684 75.4257 118.577 75.8551 117.347 76.2846C116.188 76.7894 114.902 77.3179 113.138 77.7758C113.412 78.002 114.513 77.6574 111.873 79.167C111.816 79.3273 111.635 79.6102 111.512 79.7941C111.441 79.8412 111.413 79.8601 111.332 79.8931C111.375 79.8648 111.427 79.8507 111.493 79.8271C111.408 79.945 111.417 79.9591 111.55 79.7893C112.203 79.478 112.808 79.341 113.11 79.3645C112.683 80.0765 111.57 81.1423 110.405 82.161C109.292 83.2268 108.127 84.2455 107.686 84.9056C106.294 85.8914 107.976 84.1418 107.025 84.4674L105.678 86.4432C105.004 86.0144 101.467 88.6085 104.145 85.5245C103.24 86.3498 102.317 87.1468 101.455 88.0051C99.6182 89.1844 97.4157 91.1981 96.4384 92.7447C95.1501 93.886 94.1889 96.5027 94.7267 95.0034C93.584 96.5171 92.4886 98.0401 91.412 99.5915L91.2326 99.5067C87.6069 103.751 85.1783 109.178 80.5171 113.681C79.648 115.36 78.7694 117.086 76.9576 119.717L76.0687 119.92C75.527 121.075 74.5355 122.631 73.6954 124.045C72.8412 125.469 72.1244 126.761 72.2409 127.398C70.9204 128.214 69.5008 130.85 68.4299 133.825C67.2552 136.767 66.4293 140.048 65.5548 141.995L66.3286 142.419C65.8526 143.796 65.4615 145.177 65.0892 146.648C64.7404 148.124 64.467 149.713 64.1411 151.499L64.9302 151.485C64.7142 154.606 62.444 159.071 61.6188 163.922C61.3646 163.54 61.6843 162.328 62.0597 161.508C59.1916 166.982 61.234 173.864 59.4867 178.961C59.658 180.295 59.4902 181.242 59.2327 182.147C59.233 182.025 59.2428 181.916 59.2147 181.813C59.2002 181.945 59.1855 182.138 59.166 182.355C58.9897 182.921 58.7944 183.519 58.6274 184.161C58.8603 183.618 59.0507 183.104 59.1558 182.647C59.0729 183.661 59.0783 185.207 59.2114 186.73L58.3641 187.333C58.3637 187.456 58.3682 187.555 58.3679 187.677C57.9955 189.148 58.7003 188.884 59.359 188.12C59.461 188.889 59.5773 189.586 59.7744 190.128C58.4294 191.307 60.128 194.074 58.7157 195.705C59.0546 196.214 59.2104 198.109 59.4465 199.971C59.7205 201.829 60.1127 203.648 60.8489 204.016C60.6645 204.077 60.5877 204.515 60.5426 203.709C60.4249 205.378 60.3638 207.07 60.8656 208.532L59.8713 209.315L61.5632 212.84C61.1416 215.098 60.8839 216.065 59.8546 213.934C60.7268 216.536 60.9792 217.592 61.213 218.558C61.4609 219.515 61.6524 220.387 62.6061 222.527L61.9165 222.414C62.1675 224.022 63.5364 226.416 63.1603 227.481C62.8861 229.377 63.7015 233.831 65.1958 238.875C66.6381 243.932 68.8209 249.518 70.4583 254.038C71.3816 251.487 71.7086 258.407 73.3117 257.954C73.1917 258.666 73.642 259.957 72.4967 258.822C73.9043 260.844 74.831 262.451 75.6683 263.893C76.6193 265.26 77.5377 266.424 79.0899 267.371C79.0738 268.116 77.8954 266.961 77.9885 267.531C78.3186 267.781 79.2617 268.521 79.3642 269.105C79.4666 269.69 78.6184 268.785 77.9724 268.276C79.5217 270.326 80.8571 271.009 81.7921 271.245C82.7413 271.471 83.399 271.136 84.0188 270.805C84.6396 271.922 85.1904 272.719 85.7985 273.294C86.4208 273.859 87.2091 274.151 88.1723 274.429C88.5197 275.32 89.3196 276.644 86.8958 274.726C87.5274 275.306 89.3748 277.219 91.2655 278.798C93.2416 280.258 95.1427 281.483 95.517 281.092C95.7849 281.648 97.4268 282.576 97.8991 282.67C99.5314 283.707 100.414 284.263 101.282 284.828C102.164 285.384 103.046 285.94 104.759 286.698L103.915 286.076C105.858 285.58 106.842 287.211 109.645 288.407L109.503 288.502C112.528 290.245 113.279 290.419 114.001 290.612C114.728 290.781 115.394 291.073 118.499 292.6L118.397 291.709C118.976 290.978 120.321 291.675 122.052 292.645C123.779 293.578 125.955 294.6 127.963 294.755L126.675 293.959C127.804 293.902 129.106 294.934 130.469 295.843C131.823 296.8 133.204 297.86 134.286 298.161C134.729 298.397 133.492 298.26 132.802 298.27C138.391 300.267 133.706 297.445 138.015 297.764C138.727 298.433 136.797 299.103 139.683 299.531C140.377 299.804 142.537 299.695 144.999 299.425C147.452 299.141 150.169 299.069 152.138 299.597C151.27 299.154 150.425 298.716 152.425 298.366C153.942 298.276 155.997 298.685 158.032 298.944C160.059 299.127 162.072 299.074 163.397 298.296C163.794 298.4 163.945 298.503 163.973 298.607C166.285 298.172 171.442 297.152 172.711 296.289C173.965 297.495 177.511 296.546 180.698 295.551C183.863 294.427 186.719 293.366 187.004 294.624L193.842 292.59L193.742 292.901C198.149 291.707 199.48 290.598 200.791 289.523C201.836 289.339 201.197 289.825 201.164 289.99C204.365 289.107 206.119 288.573 207.661 287.875C209.185 287.149 210.491 286.219 212.825 284.587L213.684 285.139C214.867 284.148 223.018 282.547 228.429 278.769C228.419 278.877 228.376 279.09 227.964 279.424C234.051 275.34 244.555 273.337 245.36 269.316C246.643 268.32 247.883 267.292 249.124 266.264C243.668 269.175 249.256 264.647 246.811 265.497C248.799 264.115 252.686 263.123 250.201 264.774L249.714 264.873C249.586 266.834 256.612 261.453 257.025 262.443C262.217 259.259 267.389 256.23 272.491 253.249C275.032 251.744 277.545 250.258 280.044 248.782C282.538 247.268 284.951 245.848 287.432 244.159C286.822 244.075 286.213 243.99 285.618 243.896C286.749 243.165 287.885 242.41 289.012 241.58C290.048 241.137 290.803 241.471 288.337 243.211C290.072 242.895 291.994 239.599 291.829 239.321C294.182 237.411 294.016 237.991 293.432 239.052C292.838 240.098 291.72 241.372 292.435 240.754C293.06 240.155 293.667 239.528 294.269 238.863L293.757 239.202C294.317 238.259 294.508 237.623 294.888 236.901C295.24 236.138 295.813 235.308 296.815 233.582C298.167 231.399 298.098 232.709 298.549 231.757C298.606 231.781 298.862 231.488 299.087 230.196C299.65 228.15 299.892 225.93 299.581 223.771C299.347 224.681 299.137 225.534 298.761 226.355C298.571 224.992 298.362 223.602 298.109 222.914C297.884 222.207 297.742 222.24 297.483 223.635C297.713 222.626 297.514 220.698 296.542 218.653C295.583 216.598 293.892 214.519 291.921 212.913C289.955 211.282 287.737 210.105 285.872 209.365C284.013 208.602 282.492 208.287 281.978 208.037C278.5 208.043 275.32 207.913 271.374 208.046C272.371 208.22 272.964 209.233 269.66 209.348C270.183 208.164 268.624 208.038 266.597 208.1C264.57 208.162 262.121 208.422 260.715 207.786C261.952 208.167 259.664 208.545 257.584 208.928C255.513 209.264 253.594 209.58 255.468 210.211C252.784 210.24 255.22 209.377 253.185 208.996C246.939 210.351 239.326 208.822 231.687 208.023C231.521 208.297 232.748 208.971 231.032 209.132L227.244 206.979C225.713 206.894 225.506 208.398 222.987 206.768C223.312 207.103 223.812 207.607 222.772 207.461C215.492 205.017 208.07 202.729 200.958 199.399C193.888 196.102 187.133 191.739 182.111 185.797C183.354 187.54 182.208 186.772 181.011 185.712C181.698 186.499 180.518 186.264 180.403 186.707C179.052 184.954 177.582 183.361 176.367 181.537C175.559 181.523 174.32 180.308 173.132 179.139C171.963 177.937 170.936 176.703 170.298 176.821L171.792 178.234C170.428 177.631 170.52 178.815 170.809 180.295C171.145 181.723 171.727 183.396 170.989 183.826C172.646 184.438 173.694 186.351 175.206 188.222C175.946 189.179 176.765 190.164 177.718 191.04C178.689 191.884 179.868 192.548 181.223 192.953C181.949 193.919 180.118 192.769 180.376 193.434C181.888 193.674 183.18 194.63 185.524 196.52L185.141 196.468C192.231 200.996 195.037 203.394 203.602 207.676L203.269 206.653C205.1 207.557 205.392 207.996 206.208 208.514C207.536 208.325 206.176 207.882 204.869 207.242C203.543 206.634 202.198 205.998 203.455 205.795C203.917 206.427 204.955 207.124 206.304 207.797C207.678 208.414 209.335 209.027 210.968 209.634C214.258 210.793 217.498 211.72 218.142 212.903C221.226 213.628 217.483 211.791 220.543 212.511L221.241 213.189L222.168 212.736C224.151 213.316 225.037 214.154 225.041 214.56C224.55 214.437 223.605 214.372 223.081 214.292C224.327 214.932 226.235 215.153 227.902 215.351C229.575 215.524 231.035 215.656 231.488 215.783C230.501 215.562 229.519 215.256 228.527 214.997C230.667 215.288 232.939 215.471 235.263 215.701C237.587 215.993 239.974 216.039 242.345 216.156C247.094 216.305 251.843 216.025 255.938 215.099L255.268 214.77C261.456 213.513 260.367 214.584 266.956 213.469L266.725 213.582C267.988 213.049 269.737 212.662 271.509 212.586C269.925 213.128 274.583 213.296 272.498 213.886C275.585 213.386 276.336 213.376 276.847 213.159C277.377 212.97 277.595 212.621 279.765 212.22C280.043 212.483 280.326 212.724 280.59 212.997C281.318 212.86 281.753 212.714 282.353 212.723C282.967 212.723 283.784 212.812 285.262 213.401C283.982 213.109 284.359 213.552 284.656 213.967C284.947 214.405 285.164 214.791 283.827 214.599C286.289 216.389 288.139 217.444 289.596 218.556C291.011 219.635 292.004 220.851 291.58 222.397C292.868 223.194 292.724 222.025 292.033 220.71C291.389 219.404 290.154 218.287 290.833 218.754C290.575 218.089 291.279 218.254 292.08 218.965C292.929 219.625 293.762 220.907 294.081 221.878C294.423 222.854 294.165 223.881 293.728 225.07C293.314 226.14 292.81 227.474 292.039 229.516C292.182 229.115 292.097 229.049 292.225 228.658C291.779 229.341 291.64 230.086 291.293 230.888C290.984 231.684 290.467 232.538 289.464 233.123C289.422 234.782 287.365 235.17 287.948 236.414C289.113 235.273 290.156 234.07 290.977 232.811C289.747 234.994 288.747 238.106 284.328 240.205C284.49 239.772 285.438 238.673 286.077 237.942C284.763 238.428 284.098 239.706 282.655 240.154C282.449 239.475 283.713 238.575 285.152 237.476C286.592 236.377 288.183 235.014 288.735 233.689C288.101 233.967 287.323 235.014 286.631 235.759C285.93 236.49 285.414 236.915 285.549 235.887C285.031 238.678 281.19 238.722 278.696 241.989L278.48 241.174C278.035 241.613 277.182 242.608 276.226 243.202L277.365 241.222C275.223 243.664 271.887 243.821 269.646 245.84C274.905 242.448 271.352 245.91 273.901 244.971C267.982 250.045 269.033 245.595 261.961 250.538C262.893 249.816 265.916 248.603 264.585 249.896C263.109 250.632 261.107 251.533 260.03 251.698C255.287 254.849 261.21 251.933 259.415 253.636C257.241 253.816 257.251 255.461 255.277 257.017L254.825 256.339C249.005 259.226 254.256 258.715 248.887 261.14L250.433 258.91L247.957 260.697L248.026 259.571C245.516 261.83 244.551 262.226 241.599 263.575C242.544 263.702 241.968 265.084 239.479 266.513C237.531 267.032 240.078 265.32 236.552 267.377C237.112 266.495 237.691 265.458 239.591 265.235C239.62 264.91 240.128 264.349 240.157 264.024C238.053 264.585 235.482 266.477 234.185 267.175C234.701 266.934 235.311 266.651 235.68 266.59L231.021 270.358C230.056 270.509 230.587 269.953 231.127 269.411C230.105 270.028 229.555 270.741 228.017 271.599C228.118 270.798 227.704 270.237 229.768 268.845L225.129 272.029C224.666 271.949 222.198 272.549 222.747 272.021C221.272 272.511 219.71 273.61 218.015 274.757C216.306 275.851 214.456 276.978 212.494 277.568C212.342 277.771 212.01 278.073 211.239 278.483C209.437 279.13 207.673 279.588 205.867 280.197C204.065 280.782 202.22 281.457 200.242 282.669C199.311 282.594 198.371 282.505 197.427 282.378C194.144 283.722 201.225 282.73 195.733 284.971C191.859 286.627 193.939 284.491 192.441 284.609C191.546 285.204 190.292 285.996 188.773 286.699C187.269 287.393 185.467 287.978 183.492 287.903C184.675 287.403 185.691 287.36 186.807 286.945L186.811 287.044ZM143.852 291.581C144.698 291.529 146.41 291.024 146.99 291.556C145.976 292.434 145.255 291.995 143.852 291.581ZM84.7349 266.129C85.3674 266.402 85.9324 267.189 86.4495 268.212C85.8461 267.675 85.2478 266.991 84.7349 266.129ZM99.9317 90.3628C99.9317 90.3628 99.9079 90.4193 99.8889 90.4523C98.265 91.6739 98.8568 91.24 99.9317 90.3628ZM103.161 87.7075C103.384 87.335 103.285 87.2785 103.082 87.3115C103.001 87.651 102.337 88.3159 101.542 89.0281C101.92 88.9808 102.384 88.693 103.161 87.7075ZM298.503 231.196L297.967 232.021C298.492 229.919 298.453 230.536 298.503 231.196Z" fill="#FDC74B"/>
<path d="M122.864 77.4469C123.297 78.1427 124.167 78.3139 125.397 78.4802C126.626 78.6002 128.127 78.4462 129.953 78.8721C129.741 78.8258 129.529 78.7795 129.317 78.7332C129.686 77.8792 128.916 77.3599 127.579 77.0776C126.329 77.018 124.467 77.0376 122.886 77.4793L122.864 77.4469Z" fill="#FDC74B"/>
</svg>
